<svg width="70" height="70" viewBox="0 0 70 70" fill="none" xmlns="http://www.w3.org/2000/svg">
<rect width="70" height="70" rx="35" fill="#F5F5F5"/>
<path d="M57.9688 26.4688L52.5 29.4766L47.0312 34.6719V52.5H54.6875C56.4998 52.5 57.9688 51.0311 57.9688 49.2188V26.4688Z" fill="#4CAF50"/>
<path d="M12.0312 26.4688L15.9841 28.3391L22.9688 34.6719V52.5H15.3125C13.5002 52.5 12.0312 51.0311 12.0312 49.2188V26.4688Z" fill="#1E88E5"/>
<path d="M47.0312 21L35 30.0234L22.9688 21L21.875 27.3438L22.9688 34.6719L35 43.6953L47.0312 34.6719L48.125 27.3438L47.0312 21Z" fill="#E53935"/>
<path d="M12.0312 22.2009V26.4688L22.9688 34.6719V21L19.5519 18.4395C18.7381 17.8292 17.7494 17.5 16.7322 17.5C14.1356 17.5 12.0312 19.6044 12.0312 22.2009Z" fill="#C62828"/>
<path d="M57.9688 22.2009V26.4688L47.0312 34.6719V21L50.4481 18.4395C51.2619 17.8292 52.2506 17.5 53.2678 17.5C55.8644 17.5 57.9688 19.6044 57.9688 22.2009Z" fill="#FBC02D"/>
</svg>
