<svg xmlns="http://www.w3.org/2000/svg" width="50" height="50" viewBox="0 0 50 50">
  <g id="skype" transform="translate(-570 -386)">
    <circle id="Ellipse_105" data-name="Ellipse 105" cx="25" cy="25" r="25" transform="translate(570 386)" fill="#f5f4fd"/>
    <g id="iconfinder_SocialMedia_Skype-Outline_2959753" transform="translate(566.996 383)">
      <path id="Path_111" data-name="Path 111" d="M22.44,17.625a4.8,4.8,0,0,1,2.52.712l.542.34.635-.135a9.75,9.75,0,0,1,11.535,11.68l-.13.582.277.527a4.75,4.75,0,0,1,.547,2.23,4.812,4.812,0,0,1-7.115,4.225l-.515-.287-.585.12a9.75,9.75,0,0,1-11.54-11.41l.122-.637-.35-.547a4.81,4.81,0,0,1,4.055-7.4m0-1.625a6.435,6.435,0,0,0-5.422,9.9A11.377,11.377,0,0,0,30.482,39.214a6.437,6.437,0,0,0,8.785-8.635A11.372,11.372,0,0,0,25.81,16.955,6.4,6.4,0,0,0,22.44,16Z" transform="translate(0 0)" fill="#0a0a0a"/>
      <path id="Path_112" data-name="Path 112" d="M40.964,39.8c0-2.88,2.88-3.925,5.567-3.925,4.165,0,5.11,2.46,5.33,3.165a1.3,1.3,0,0,1-1.4,1.5c-1.15-.127-1.307-1.75-3.547-2.38-.687-.19-2.9.087-2.9,1.38,0,1.15,3.75,1.715,5.592,2.427,1.93.75,2.807,1.785,2.807,3.545,0,3.57-3.855,4.425-5.45,4.425-5.045,0-6.14-3.5-6.14-4.092a1.275,1.275,0,0,1,1.307-1.357c1.737,0,1.07,3.07,4.4,3.07,2.617,0,2.88-1.212,2.88-1.807,0-1.712-4.567-2.307-4.567-2.307S40.964,42.837,40.964,39.8Z" transform="translate(-18.612 -14.91)" fill="#0a0a0a"/>
    </g>
  </g>
</svg>
