<svg width="120" height="120" viewBox="0 0 120 120" fill="none" xmlns="http://www.w3.org/2000/svg">
<rect width="120" height="120" rx="60" fill="#EFF0F0"/>
<g clip-path="url(#clip0_466_147)">
<path d="M82.1429 68.3916L80.197 47.3649C80.0775 46.1025 79.4796 44.9336 78.526 44.0978C77.5723 43.262 76.3351 42.8227 75.068 42.8698C73.8008 42.9169 72.5996 43.447 71.7107 44.3513C70.8218 45.2556 70.3124 46.4656 70.287 47.7334L70.1332 50.6497C66.6836 45.0283 59.6568 33.6105 59.573 33.4743C59.2287 32.9045 58.7733 32.4096 58.2341 32.0191C57.6948 31.6285 57.0826 31.3503 56.4337 31.2009C55.8009 31.0515 55.1445 31.0308 54.5035 31.1399C53.8625 31.249 53.2499 31.4857 52.7021 31.8359C51.7452 32.4465 51.0248 33.3648 50.6594 34.4394L49.415 32.4025C49.0706 31.8327 48.6154 31.3379 48.0762 30.9475C47.537 30.557 46.9249 30.2788 46.2761 30.1293C45.6432 29.9798 44.9867 29.959 44.3456 30.0681C43.7045 30.1771 43.0918 30.4138 42.5438 30.7641C41.4259 31.4927 40.6362 32.6285 40.3426 33.9302C40.0491 35.2318 40.2747 36.5967 40.9717 37.7346L41.6807 38.8952C40.5523 38.7509 39.4091 39.0074 38.4506 39.6199C37.3327 40.3485 36.5431 41.4844 36.2495 42.7861C35.956 44.0877 36.1817 45.4525 36.8786 46.5904L39.3045 50.5611C38.1761 50.4153 37.0325 50.672 36.0746 51.2858C34.9566 52.0143 34.1669 53.1501 33.8732 54.4517C33.5795 55.7533 33.8051 57.1181 34.502 58.2561L47.5631 79.6475C51.1776 85.5637 57.9057 90.0003 64.9876 90C67.7747 89.9998 70.5174 89.3016 72.9654 87.969C72.985 87.9582 73.0047 87.9468 73.024 87.9347L74.541 86.97C78.3028 84.5768 80.5344 81.8703 81.7758 78.1943C82.6844 75.5047 82.5631 73.0536 82.3448 70.5714C82.2413 69.3906 82.1429 68.3914 82.1429 68.3916ZM79.9997 77.594C78.9043 80.8365 76.9108 83.2399 73.5348 85.3875L72.0471 86.3334C63.4623 90.9324 53.6735 86.0532 49.1632 78.6697L36.1021 57.2786C35.6591 56.5606 35.5135 55.6983 35.6962 54.8747C35.879 54.0512 36.3757 53.3313 37.0807 52.8682C37.7826 52.4427 38.6241 52.3118 39.422 52.504C40.2199 52.6962 40.9095 53.1959 41.3407 53.8943L49.6486 67.4933C49.7811 67.7022 49.9896 67.8515 50.2301 67.9095C50.4706 67.9676 50.7243 67.9299 50.9375 67.8044C51.1496 67.6747 51.3016 67.466 51.3599 67.2243C51.4183 66.9825 51.3782 66.7275 51.2485 66.5153L38.4785 45.6125C38.0354 44.8946 37.8898 44.0323 38.0725 43.2088C38.2552 42.3852 38.7519 41.6654 39.4569 41.2023C40.1594 40.7758 41.0021 40.6448 41.8009 40.8379C42.5997 41.031 43.2895 41.5324 43.7197 42.2326L56.4921 63.1392C56.625 63.3476 56.8335 63.4964 57.0738 63.5544C57.3141 63.6124 57.5675 63.5751 57.7809 63.4503C57.9931 63.3206 58.1451 63.1119 58.2034 62.8702C58.2617 62.6284 58.2216 62.3734 58.092 62.1612L42.5715 36.7568C42.1285 36.0389 41.9829 35.1766 42.1656 34.353C42.3484 33.5294 42.8451 32.8096 43.5502 32.3464C44.2532 31.9191 45.0969 31.788 45.8964 31.9819C46.6959 32.1757 47.3859 32.6787 47.8151 33.3805L63.3351 58.7851C63.4677 58.9939 63.6762 59.1431 63.9167 59.2012C64.1572 59.2592 64.4108 59.2216 64.6241 59.0962C64.8362 58.9665 64.9882 58.7578 65.0465 58.5161C65.1049 58.2744 65.0649 58.0194 64.9354 57.8071L52.7298 37.8284C52.2866 37.1106 52.1409 36.2482 52.3237 35.4246C52.5064 34.601 53.0032 33.8812 53.7085 33.4182C54.0464 33.2022 54.4243 33.0563 54.8197 32.9892C55.2152 32.9222 55.6201 32.9353 56.0103 33.0279C56.4167 33.122 56.7999 33.2968 57.1374 33.5419C57.4749 33.787 57.7596 34.0975 57.9748 34.4548C58.0773 34.6214 68.2491 51.1499 70.1108 54.2016C70.2151 54.3725 70.3713 54.5056 70.5567 54.5812C70.7421 54.6569 70.9468 54.6712 71.1409 54.6221C71.335 54.573 71.5082 54.463 71.6353 54.3083C71.7624 54.1536 71.8366 53.9623 71.847 53.7623L72.1602 47.8129C72.1657 47.0184 72.4767 46.2565 73.0288 45.6853C73.581 45.114 74.3318 44.7771 75.1256 44.7445C75.9194 44.7119 76.6953 44.9861 77.2924 45.5102C77.8895 46.0343 78.2619 46.7681 78.3325 47.5594C78.3325 47.5594 80.3741 69.5632 80.4771 70.7355C80.6849 73.0985 80.7925 75.2455 79.9997 77.594L79.9997 77.594ZM37.798 81.6215C35.6711 80.9097 33.8815 78.6434 32.9161 76.7598C31.7883 74.5687 31.5679 72.0218 32.3024 69.6694C32.3776 69.4328 32.3559 69.1761 32.242 68.9555C32.1281 68.7349 31.9314 68.5685 31.695 68.4927C31.4586 68.4169 31.2018 68.438 30.9809 68.5513C30.76 68.6646 30.5931 68.8609 30.5167 69.0971C29.6323 71.9224 29.8948 74.9822 31.2475 77.6156C31.7978 78.6892 33.8535 82.2791 37.2034 83.3997C37.4392 83.4786 37.6967 83.4605 37.9192 83.3495C38.1417 83.2386 38.311 83.0437 38.3899 82.8079C38.4687 82.5721 38.4507 82.3146 38.3397 82.0921C38.2287 81.8696 38.0338 81.7003 37.798 81.6215H37.798ZM40.1418 76.9329C39.0406 76.5648 38.0977 75.3588 37.5822 74.3527C36.9861 73.1954 36.8691 71.85 37.2565 70.6071C37.2941 70.4899 37.3082 70.3664 37.2981 70.2437C37.288 70.121 37.2538 70.0016 37.1974 69.8921C37.1411 69.7826 37.0638 69.6854 36.9699 69.6058C36.876 69.5262 36.7673 69.4659 36.6501 69.4283C36.5328 69.3907 36.4094 69.3766 36.2867 69.3868C36.164 69.3969 36.0445 69.4311 35.9351 69.4874C35.8256 69.5437 35.7283 69.6211 35.6487 69.715C35.5692 69.8089 35.5089 69.9176 35.4713 70.0348C34.9335 71.7504 35.0925 73.6088 35.9137 75.2082C36.2456 75.8561 37.4884 78.023 39.5471 78.7116C39.7831 78.7874 40.0393 78.7679 40.261 78.6573C40.4827 78.5467 40.6523 78.3537 40.7337 78.1197C40.8124 77.8838 40.7943 77.6263 40.6834 77.4038C40.5724 77.1812 40.3776 77.0119 40.1418 76.9329ZM88.0722 39.6809C87.4066 38.6889 84.9705 35.3993 81.5744 34.7084C81.3309 34.6595 81.0779 34.7091 80.871 34.8464C80.6641 34.9838 80.5201 35.1976 80.4707 35.441C80.4212 35.6843 80.4703 35.9374 80.6072 36.1446C80.7441 36.3518 80.9576 36.4962 81.2008 36.5462C83.3431 36.9821 85.3509 38.9911 86.5158 40.7261C87.8794 42.7575 88.4033 45.2381 87.9775 47.6473C87.9551 47.7684 87.9569 47.8928 87.9827 48.0132C88.0084 48.1336 88.0576 48.2478 88.1275 48.3491C88.1974 48.4505 88.2866 48.5371 88.39 48.604C88.4933 48.671 88.6089 48.7168 88.73 48.7391C88.7862 48.7496 88.8432 48.7549 88.9003 48.7549C89.1194 48.7545 89.3314 48.6775 89.4997 48.5372C89.6679 48.3969 89.7817 48.2021 89.8213 47.9866C90.3344 45.096 89.7074 42.119 88.0722 39.6809ZM79.8743 39.6236C79.6308 39.5747 79.3778 39.6243 79.1709 39.7616C78.964 39.899 78.82 40.1128 78.7706 40.3561C78.7211 40.5995 78.7702 40.8526 78.9071 41.0598C79.044 41.267 79.2575 41.4114 79.5007 41.4614C80.6058 41.6862 81.6632 42.7548 82.2843 43.6801C83.0055 44.7536 83.2827 46.0648 83.058 47.3383C83.013 47.5828 83.0669 47.8352 83.208 48.0399C83.3491 48.2446 83.5657 48.3849 83.8102 48.4299C84.0548 48.4748 84.3071 48.4209 84.5118 48.2798C84.7165 48.1387 84.8568 47.9221 84.9018 47.6776C85.2138 45.9227 84.8335 44.1152 83.8407 42.6349C83.4388 42.036 81.9648 40.0487 79.8743 39.6236Z" fill="#3B424F"/>
</g>
<defs>
<clipPath id="clip0_466_147">
<rect width="60" height="60" fill="white" transform="translate(30 30)"/>
</clipPath>
</defs>
</svg>
