<svg width="71" height="70" viewBox="0 0 71 70" fill="none" xmlns="http://www.w3.org/2000/svg">
<rect x="0.333984" width="70" height="70" rx="35" fill="#E9F7EA"/>
<path d="M14.4102 56.1127L17.3567 45.3556C15.5389 42.2078 14.583 38.6356 14.5841 34.977C14.5895 23.5309 23.9039 14.2188 35.3511 14.2188C40.9062 14.2209 46.119 16.3833 50.0401 20.3066C53.9601 24.2309 56.1192 29.4459 56.117 34.9934C56.1126 46.4395 46.7961 55.7528 35.3511 55.7528C35.35 55.7528 35.3511 55.7528 35.3511 55.7528H35.3423C31.8675 55.7517 28.4517 54.88 25.4187 53.2252L14.4102 56.1127Z" fill="white"/>
<path d="M14.4097 56.6595C14.2653 56.6595 14.1253 56.6027 14.0214 56.4977C13.8847 56.3587 13.8311 56.1564 13.8825 55.9694L16.7689 45.43C14.9795 42.2516 14.0356 38.6422 14.0378 34.9781C14.0422 23.2291 23.6026 13.6719 35.3506 13.6719C41.0491 13.6741 46.403 15.8933 50.4269 19.9205C54.4508 23.9488 56.6656 29.3016 56.6634 34.9934C56.659 46.7414 47.0975 56.2997 35.3506 56.2997C31.8626 56.2986 28.4119 55.4378 25.3494 53.8092L14.5486 56.6409C14.5026 56.6541 14.4567 56.6595 14.4097 56.6595Z" fill="white"/>
<path d="M35.3496 14.2187C40.9047 14.2209 46.1176 16.3833 50.0387 20.3066C53.9587 24.2309 56.1177 29.4459 56.1155 34.9934C56.1112 46.4395 46.7946 55.7528 35.3496 55.7528H35.3408C31.866 55.7517 28.4502 54.88 25.4172 53.2251L14.4087 56.1126L17.3552 45.3556C15.5374 42.2078 14.5815 38.6356 14.5826 34.977C14.588 23.5309 23.9024 14.2187 35.3496 14.2187ZM35.3496 13.125C23.3008 13.125 13.4943 22.9272 13.4888 34.977C13.4877 38.6597 14.4174 42.2887 16.1805 45.5011L13.3532 55.825C13.2504 56.2023 13.3554 56.6048 13.631 56.8826C13.8388 57.0926 14.1199 57.2075 14.4087 57.2075C14.5016 57.2075 14.5946 57.1955 14.6865 57.1714L25.2816 54.3933C28.3747 55.9989 31.8419 56.8465 35.3408 56.8476C47.3983 56.8476 57.2049 47.0444 57.2104 34.9945C57.2126 29.155 54.9408 23.6644 50.8141 19.5344C46.6852 15.4033 41.1935 13.1272 35.3496 13.125Z" fill="#CFD8DC"/>
<path d="M47.5559 22.7849C44.2966 19.5233 39.9642 17.7263 35.353 17.7252C25.833 17.7252 18.0903 25.4646 18.0859 34.978C18.0848 38.2385 18.997 41.4126 20.7252 44.1612L21.1364 44.8141L19.3919 51.1808L25.9248 49.468L26.5559 49.8421C29.205 51.4149 32.2434 52.2462 35.3409 52.2473H35.3475C44.8609 52.2473 52.6036 44.5068 52.6069 34.9923C52.608 30.3821 50.8153 26.0465 47.5559 22.7849Z" fill="#40C351"/>
<path fill-rule="evenodd" clip-rule="evenodd" d="M30.1595 26.2992C29.7712 25.4351 29.3622 25.4176 28.9914 25.4023C28.6884 25.3892 28.3428 25.3903 27.9972 25.3903C27.6516 25.3903 27.0894 25.5204 26.6136 26.04C26.1378 26.5595 24.7969 27.814 24.7969 30.3668C24.7969 32.9197 26.6563 35.3872 26.9155 35.7328C27.1747 36.0784 30.5052 41.4848 35.7792 43.5651C40.1619 45.2932 41.0544 44.9498 42.0059 44.8634C42.9575 44.777 45.0761 43.6089 45.5081 42.397C45.9402 41.1851 45.9402 40.1472 45.8111 39.9306C45.6809 39.714 45.3353 39.585 44.8169 39.3247C44.2984 39.0643 41.7467 37.8098 41.2709 37.637C40.7952 37.4642 40.4495 37.3778 40.1028 37.8973C39.7572 38.4157 38.763 39.585 38.46 39.9306C38.157 40.2773 37.8541 40.3211 37.3356 40.0608C36.8172 39.8004 35.1459 39.2536 33.163 37.4861C31.6208 36.1112 30.5795 34.4126 30.2766 33.8931C29.9736 33.3747 30.2438 33.0936 30.5041 32.8343C30.737 32.6014 31.0225 32.2284 31.2828 31.9254C31.542 31.6225 31.6284 31.4059 31.8012 31.0603C31.9741 30.7136 31.8877 30.4106 31.7575 30.1514C31.6295 29.8911 30.6211 27.3251 30.1595 26.2992Z" fill="white"/>
</svg>
